<?xml version="1.0" standalone="no"?>
<!DOCTYPE svg PUBLIC "-//W3C//DTD SVG 20010904//EN"
 "http://www.w3.org/TR/2001/REC-SVG-20010904/DTD/svg10.dtd">
<svg version="1.0" xmlns="http://www.w3.org/2000/svg"
 width="200.000000pt" height="200.000000pt" viewBox="0 0 200.000000 200.000000"
 preserveAspectRatio="xMidYMid meet">
<metadata>
Created by potrace 1.11, written by Peter Selinger 2001-2013
</metadata>
<g transform="translate(0.000000,200.000000) scale(0.100000,-0.100000)"
fill="#000000" stroke="none">
<path d="M602 1641 c14 -11 31 -21 38 -21 6 0 9 -4 6 -9 -3 -5 14 -27 38 -49
24 -22 41 -43 38 -46 -3 -3 3 -6 13 -6 10 0 16 -3 13 -6 -3 -3 4 -15 16 -27
11 -12 44 -49 71 -82 28 -32 68 -78 90 -100 22 -23 56 -61 75 -86 19 -24 60
-71 92 -104 31 -33 84 -92 117 -132 34 -39 65 -73 69 -75 4 -2 24 -23 44 -48
20 -25 55 -65 77 -89 23 -25 41 -49 41 -55 0 -6 5 -4 10 4 8 13 10 12 10 -3 0
-10 4 -16 9 -12 5 3 13 0 17 -6 5 -8 3 -9 -5 -4 -9 5 -12 2 -9 -11 6 -32 22
-21 36 26 17 56 18 198 3 265 -35 147 -139 271 -322 385 -120 74 -507 272
-604 309 -5 2 2 -6 17 -18z"/>
<path d="M430 1613 c0 -13 29 -38 35 -31 3 3 -4 13 -15 23 -11 10 -20 13 -20
8z"/>
<path d="M448 1562 c24 -23 41 -46 37 -51 -3 -6 1 -14 9 -17 9 -3 16 -13 16
-21 0 -8 5 -24 12 -36 7 -12 13 -26 14 -32 10 -48 16 -73 44 -165 17 -58 40
-127 51 -155 12 -27 25 -68 30 -90 6 -21 25 -84 43 -140 18 -55 48 -147 66
-205 17 -58 38 -121 45 -140 18 -45 48 -144 47 -150 0 -3 4 -11 10 -17 7 -9 7
-13 -1 -13 -6 0 -11 -4 -11 -10 0 -5 7 -10 15 -10 8 0 12 -6 9 -14 -3 -9 5
-15 27 -20 84 -16 208 7 311 59 38 20 72 34 75 31 7 -7 5 -215 -2 -226 -10
-16 11 -11 25 5 7 9 19 14 27 11 7 -3 14 -2 14 2 1 4 3 20 5 35 1 16 10 40 19
54 l17 25 31 -30 c60 -58 73 -57 137 12 74 79 172 186 196 214 19 23 52 35
159 58 l60 14 -70 -5 c-191 -13 -447 -132 -518 -240 -28 -44 -37 -44 -37 -1 0
58 -30 194 -61 279 -46 124 -139 289 -245 431 -148 199 -543 586 -582 571 -8
-3 -27 2 -41 11 -14 8 -6 -2 17 -24z"/>
<path d="M1599 548 c-96 -7 -134 -22 -173 -68 -25 -30 -43 -76 -34 -85 8 -9
47 8 41 18 -3 6 -1 7 6 3 6 -4 23 -1 36 8 13 9 32 13 41 9 11 -4 15 -2 11 4
-4 6 4 14 18 17 14 4 51 19 83 33 31 15 75 34 97 44 l40 16 -40 4 c-22 2 -79
1 -126 -3z"/>
</g>
</svg>
